<svg width="33" height="32" viewBox="0 0 33 32" fill="none" xmlns="http://www.w3.org/2000/svg">
<g clip-path="url(#clip0_361_24304)">
<path opacity="0.3" d="M5.83337 22.6667H27.1667V25.3333H5.83337V22.6667ZM23.1667 14.44L21.0067 16L16.5 9.86667L11.9934 16L9.83337 14.44L12.6067 10.6667H5.83337V18.6667H27.1667V10.6667H20.3934L23.1667 14.44Z" fill="url(#paint0_linear_361_24304)"/>
<path d="M27.1666 7.99999H24.26C24.4066 7.58666 24.5 7.13333 24.5 6.66666C24.5 4.45333 22.7133 2.66666 20.5 2.66666C19.1 2.66666 17.8866 3.38666 17.1666 4.46666L16.5 5.36L15.8333 4.45333C15.1133 3.38666 13.9 2.66666 12.5 2.66666C10.2866 2.66666 8.49996 4.45333 8.49996 6.66666C8.49996 7.13333 8.59329 7.58666 8.73996 7.99999H5.83329C4.35329 7.99999 3.17996 9.18666 3.17996 10.6667L3.16663 25.3333C3.16663 26.8133 4.35329 28 5.83329 28H27.1666C28.6466 28 29.8333 26.8133 29.8333 25.3333V10.6667C29.8333 9.18666 28.6466 7.99999 27.1666 7.99999ZM20.5 5.33333C21.2333 5.33333 21.8333 5.93333 21.8333 6.66666C21.8333 7.39999 21.2333 7.99999 20.5 7.99999C19.7666 7.99999 19.1666 7.39999 19.1666 6.66666C19.1666 5.93333 19.7666 5.33333 20.5 5.33333ZM12.5 5.33333C13.2333 5.33333 13.8333 5.93333 13.8333 6.66666C13.8333 7.39999 13.2333 7.99999 12.5 7.99999C11.7666 7.99999 11.1666 7.39999 11.1666 6.66666C11.1666 5.93333 11.7666 5.33333 12.5 5.33333ZM27.1666 25.3333H5.83329V22.6667H27.1666V25.3333ZM27.1666 18.6667H5.83329V10.6667H12.6066L9.83329 14.44L11.9933 16L16.5 9.86666L21.0066 16L23.1666 14.44L20.3933 10.6667H27.1666V18.6667Z" fill="url(#paint1_linear_361_24304)"/>
</g>
<defs>
<linearGradient id="paint0_linear_361_24304" x1="5.83337" y1="9.86667" x2="20.5334" y2="30.1425" gradientUnits="userSpaceOnUse">
<stop stop-color="#02C3BD"/>
<stop offset="1" stop-color="#4062BB"/>
</linearGradient>
<linearGradient id="paint1_linear_361_24304" x1="3.16663" y1="2.66666" x2="28.4667" y2="29.2983" gradientUnits="userSpaceOnUse">
<stop stop-color="#02C3BD"/>
<stop offset="1" stop-color="#4062BB"/>
</linearGradient>
<clipPath id="clip0_361_24304">
<rect width="32" height="32" fill="white" transform="translate(0.5)"/>
</clipPath>
</defs>
</svg>
