<svg width="32" height="32" viewBox="0 0 32 32" fill="none" xmlns="http://www.w3.org/2000/svg">
<g clip-path="url(#clip0_361_24298)">
<path opacity="0.3" d="M25.3333 6.66667H6.66663V25.3334H25.3333V6.66667ZM12 22.6667H9.3333V13.3333H12V22.6667ZM17.3333 22.6667H14.6666V9.33334H17.3333V22.6667ZM22.6666 22.6667H20V17.3334H22.6666V22.6667Z" fill="url(#paint0_linear_361_24298)"/>
<path d="M4 6.66667V25.3333C4 26.8 5.2 28 6.66667 28H25.3333C26.8 28 28 26.8 28 25.3333V6.66667C28 5.2 26.8 4 25.3333 4H6.66667C5.2 4 4 5.2 4 6.66667ZM6.66667 6.66667H25.3333V25.3333H6.66667V6.66667ZM9.33333 13.3333H12V22.6667H9.33333V13.3333ZM14.6667 9.33333H17.3333V22.6667H14.6667V9.33333ZM20 17.3333H22.6667V22.6667H20V17.3333Z" fill="url(#paint1_linear_361_24298)"/>
</g>
<defs>
<linearGradient id="paint0_linear_361_24298" x1="6.66663" y1="6.66667" x2="25.3333" y2="25.3334" gradientUnits="userSpaceOnUse">
<stop stop-color="#02C3BD"/>
<stop offset="1" stop-color="#4062BB"/>
</linearGradient>
<linearGradient id="paint1_linear_361_24298" x1="4" y1="4" x2="28" y2="28" gradientUnits="userSpaceOnUse">
<stop stop-color="#02C3BD"/>
<stop offset="1" stop-color="#4062BB"/>
</linearGradient>
<clipPath id="clip0_361_24298">
<rect width="32" height="32" fill="white"/>
</clipPath>
</defs>
</svg>
