<svg width="33" height="32" viewBox="0 0 33 32" fill="none" xmlns="http://www.w3.org/2000/svg">
<g clip-path="url(#clip0_361_24322)">
<path opacity="0.3" d="M7.16663 6.66666H12.5V12H7.16663V6.66666ZM20.5 20H25.8333V25.3333H20.5V20ZM7.16663 20H12.5V25.3333H7.16663V20ZM22.7133 6.02666L18.94 9.78666L22.7133 13.56L26.4866 9.78666L22.7133 6.02666Z" fill="url(#paint0_linear_361_24322)"/>
<path d="M22.7133 2.25333L15.1667 9.78667L22.7133 17.3333L30.26 9.78667L22.7133 2.25333ZM18.94 9.78667L22.7133 6.01333L26.4867 9.78667L22.7133 13.56L18.94 9.78667ZM4.5 4V14.6667H15.1667V4H4.5ZM12.5 12H7.16667V6.66667H12.5V12ZM4.5 28H15.1667V17.3333H4.5V28ZM7.16667 20H12.5V25.3333H7.16667V20ZM17.8333 17.3333V28H28.5V17.3333H17.8333ZM25.8333 25.3333H20.5V20H25.8333V25.3333Z" fill="url(#paint1_linear_361_24322)"/>
</g>
<defs>
<linearGradient id="paint0_linear_361_24322" x1="7.16663" y1="6.02666" x2="26.4733" y2="25.3467" gradientUnits="userSpaceOnUse">
<stop stop-color="#02C3BD"/>
<stop offset="1" stop-color="#4062BB"/>
</linearGradient>
<linearGradient id="paint1_linear_361_24322" x1="4.5" y1="2.25333" x2="30.2467" y2="28.0133" gradientUnits="userSpaceOnUse">
<stop stop-color="#02C3BD"/>
<stop offset="1" stop-color="#4062BB"/>
</linearGradient>
<clipPath id="clip0_361_24322">
<rect width="32" height="32" fill="white" transform="translate(0.5)"/>
</clipPath>
</defs>
</svg>
