<svg width="16" height="16" viewBox="0 0 16 16" fill="none" xmlns="http://www.w3.org/2000/svg">
<path d="M12.6667 11.333V7.86634C12.3333 7.93301 12 7.99967 11.6667 7.99967H11.3333V11.9997H4.66667V7.33301C4.66667 5.46634 6.13333 3.99967 8 3.99967C8.06667 3.13301 8.46667 2.39967 9 1.79967C8.8 1.53301 8.4 1.33301 8 1.33301C7.26667 1.33301 6.66667 1.93301 6.66667 2.66634V2.86634C4.66667 3.46634 3.33333 5.26634 3.33333 7.33301V11.333L2 12.6663V13.333H14V12.6663L12.6667 11.333ZM6.66667 13.9997C6.66667 14.733 7.26667 15.333 8 15.333C8.73333 15.333 9.33333 14.733 9.33333 13.9997H6.66667ZM14 4.33301C14 5.59967 12.9333 6.66634 11.6667 6.66634C10.4 6.66634 9.33333 5.59967 9.33333 4.33301C9.33333 3.06634 10.4 1.99967 11.6667 1.99967C12.9333 1.99967 14 3.06634 14 4.33301Z" fill="url(#paint0_linear_2095_44158)"/>
<defs>
<linearGradient id="paint0_linear_2095_44158" x1="2" y1="1.33301" x2="15.8353" y2="13.1918" gradientUnits="userSpaceOnUse">
<stop stop-color="#02C3BD"/>
<stop offset="1" stop-color="#4062BB"/>
</linearGradient>
</defs>
</svg>
