<svg width="35" height="38" viewBox="0 0 35 38" fill="none" xmlns="http://www.w3.org/2000/svg">
<g clip-path="url(#clip0_361_24344)" filter="url(#filter0_d_361_24344)">
<path opacity="0.3" d="M14.1667 14.6667C14.9031 14.6667 15.5 14.0697 15.5 13.3333C15.5 12.597 14.9031 12 14.1667 12C13.4303 12 12.8334 12.597 12.8334 13.3333C12.8334 14.0697 13.4303 14.6667 14.1667 14.6667Z" fill="url(#paint0_linear_361_24344)"/>
<path opacity="0.3" d="M16.8333 22.9467C16.8333 20.44 20.8066 19.3467 22.8333 19.3467C24.0066 19.3467 25.8199 19.7067 27.1533 20.5067C27.7933 19.1467 28.1533 17.6267 28.1533 16.0133C28.1533 10.1333 23.3666 5.34666 17.4866 5.34666C11.6066 5.34666 6.81995 10.1333 6.81995 16.0133C6.81995 17.6533 7.20661 19.2 7.85995 20.5867C9.64661 19.28 12.4333 18.68 14.1666 18.68C14.7533 18.68 15.4599 18.7467 16.2066 18.8933C15.3666 19.6533 14.7933 20.52 14.4733 21.3733C14.3666 21.3733 14.2733 21.36 14.1666 21.36C12.3266 21.36 10.1933 22.12 9.28661 22.84C11.1133 25.04 13.8066 26.48 16.8333 26.6533V22.9467ZM22.8333 12C24.3133 12 25.4999 13.1867 25.4999 14.6667C25.4999 16.1467 24.3133 17.3333 22.8333 17.3333C21.3533 17.3333 20.1666 16.1467 20.1666 14.6667C20.1533 13.1867 21.3533 12 22.8333 12ZM14.1666 17.3333C11.9666 17.3333 10.1666 15.5333 10.1666 13.3333C10.1666 11.1333 11.9666 9.33333 14.1666 9.33333C16.3666 9.33333 18.1666 11.1333 18.1666 13.3333C18.1666 15.5333 16.3666 17.3333 14.1666 17.3333Z" fill="url(#paint1_linear_361_24344)"/>
<path d="M18.1667 13.3333C18.1667 11.1333 16.3667 9.33333 14.1667 9.33333C11.9667 9.33333 10.1667 11.1333 10.1667 13.3333C10.1667 15.5333 11.9667 17.3333 14.1667 17.3333C16.3667 17.3333 18.1667 15.5333 18.1667 13.3333ZM14.1667 14.6667C13.4333 14.6667 12.8333 14.0667 12.8333 13.3333C12.8333 12.6 13.4333 12 14.1667 12C14.9 12 15.5 12.6 15.5 13.3333C15.5 14.0667 14.9 14.6667 14.1667 14.6667ZM22.8333 17.3333C24.3133 17.3333 25.5 16.1467 25.5 14.6667C25.5 13.1867 24.3133 12 22.8333 12C21.3533 12 20.1533 13.1867 20.1667 14.6667C20.1667 16.1467 21.3533 17.3333 22.8333 17.3333ZM17.4867 2.68C10.1267 2.68 4.15332 8.65333 4.15332 16.0133C4.15332 23.3733 10.1267 29.3467 17.4867 29.3467C24.8467 29.3467 30.82 23.3733 30.82 16.0133C30.82 8.65333 24.8467 2.68 17.4867 2.68ZM9.28665 22.8267C10.1933 22.1067 12.3133 21.3467 14.1667 21.3467C14.26 21.3467 14.3667 21.36 14.4733 21.36C14.7933 20.5067 15.3667 19.64 16.2067 18.88C15.46 18.7467 14.7533 18.6667 14.1667 18.6667C12.4333 18.6667 9.64665 19.2667 7.85999 20.5733C7.19332 19.1867 6.81999 17.64 6.81999 16C6.81999 10.12 11.6067 5.33333 17.4867 5.33333C23.3667 5.33333 28.1533 10.12 28.1533 16C28.1533 17.6 27.7933 19.12 27.1533 20.4933C25.82 19.7067 24.0067 19.3333 22.8333 19.3333C20.8067 19.3333 16.8333 20.4133 16.8333 22.9333V26.64C13.8067 26.4667 11.1133 25.0267 9.28665 22.8267Z" fill="url(#paint2_linear_361_24344)"/>
</g>
<defs>
<filter id="filter0_d_361_24344" x="-2.5" y="0" width="40" height="40" filterUnits="userSpaceOnUse" color-interpolation-filters="sRGB">
<feFlood flood-opacity="0" result="BackgroundImageFix"/>
<feColorMatrix in="SourceAlpha" type="matrix" values="0 0 0 0 0 0 0 0 0 0 0 0 0 0 0 0 0 0 127 0" result="hardAlpha"/>
<feOffset dy="4"/>
<feGaussianBlur stdDeviation="2"/>
<feComposite in2="hardAlpha" operator="out"/>
<feColorMatrix type="matrix" values="0 0 0 0 0 0 0 0 0 0 0 0 0 0 0 0 0 0 0.25 0"/>
<feBlend mode="normal" in2="BackgroundImageFix" result="effect1_dropShadow_361_24344"/>
<feBlend mode="normal" in="SourceGraphic" in2="effect1_dropShadow_361_24344" result="shape"/>
</filter>
<linearGradient id="paint0_linear_361_24344" x1="12.8334" y1="12" x2="15.5" y2="14.6667" gradientUnits="userSpaceOnUse">
<stop stop-color="#02C3BD"/>
<stop offset="1" stop-color="#4062BB"/>
</linearGradient>
<linearGradient id="paint1_linear_361_24344" x1="6.81995" y1="5.34666" x2="28.1266" y2="26.68" gradientUnits="userSpaceOnUse">
<stop stop-color="#02C3BD"/>
<stop offset="1" stop-color="#4062BB"/>
</linearGradient>
<linearGradient id="paint2_linear_361_24344" x1="4.15332" y1="2.68" x2="30.82" y2="29.3467" gradientUnits="userSpaceOnUse">
<stop stop-color="#02C3BD"/>
<stop offset="1" stop-color="#4062BB"/>
</linearGradient>
<clipPath id="clip0_361_24344">
<rect width="32" height="32" fill="white" transform="translate(1.5)"/>
</clipPath>
</defs>
</svg>
