<svg width="32" height="32" viewBox="0 0 32 32" fill="none" xmlns="http://www.w3.org/2000/svg">
<g clip-path="url(#clip0_361_24291)">
<path opacity="0.3" d="M20 21.3333C16.4133 21.3333 12.3067 23.04 12 24H28C27.7333 23.0533 23.6 21.3333 20 21.3333Z" fill="url(#paint0_linear_361_24291)"/>
<path opacity="0.3" d="M20 13.3333C21.4728 13.3333 22.6667 12.1394 22.6667 10.6667C22.6667 9.19391 21.4728 8 20 8C18.5273 8 17.3334 9.19391 17.3334 10.6667C17.3334 12.1394 18.5273 13.3333 20 13.3333Z" fill="url(#paint1_linear_361_24291)"/>
<path d="M20 16C22.9467 16 25.3334 13.6133 25.3334 10.6667C25.3334 7.72 22.9467 5.33334 20 5.33334C17.0534 5.33334 14.6667 7.72 14.6667 10.6667C14.6667 13.6133 17.0534 16 20 16ZM20 8C21.4667 8 22.6667 9.2 22.6667 10.6667C22.6667 12.1333 21.4667 13.3333 20 13.3333C18.5334 13.3333 17.3334 12.1333 17.3334 10.6667C17.3334 9.2 18.5334 8 20 8ZM20 18.6667C16.44 18.6667 9.33337 20.4533 9.33337 24V26.6667H30.6667V24C30.6667 20.4533 23.56 18.6667 20 18.6667ZM12 24C12.2934 23.04 16.4134 21.3333 20 21.3333C23.6 21.3333 27.7334 23.0533 28 24H12ZM8.00004 20V16H12V13.3333H8.00004V9.33334H5.33337V13.3333H1.33337V16H5.33337V20H8.00004Z" fill="url(#paint2_linear_361_24291)"/>
</g>
<defs>
<linearGradient id="paint0_linear_361_24291" x1="12" y1="21.3333" x2="12.8649" y2="26.5225" gradientUnits="userSpaceOnUse">
<stop stop-color="#02C3BD"/>
<stop offset="1" stop-color="#4062BB"/>
</linearGradient>
<linearGradient id="paint1_linear_361_24291" x1="17.3334" y1="8" x2="22.6667" y2="13.3333" gradientUnits="userSpaceOnUse">
<stop stop-color="#02C3BD"/>
<stop offset="1" stop-color="#4062BB"/>
</linearGradient>
<linearGradient id="paint2_linear_361_24291" x1="1.33337" y1="5.33334" x2="21.6289" y2="33.2396" gradientUnits="userSpaceOnUse">
<stop stop-color="#02C3BD"/>
<stop offset="1" stop-color="#4062BB"/>
</linearGradient>
<clipPath id="clip0_361_24291">
<rect width="32" height="32" fill="white"/>
</clipPath>
</defs>
</svg>
