<svg width="33" height="32" viewBox="0 0 33 32" fill="none" xmlns="http://www.w3.org/2000/svg">
<g clip-path="url(#clip0_361_24316)">
<path opacity="0.3" d="M7.16663 22.6667C7.16663 23.4 7.76663 24 8.49996 24H9.83329V18.6667H7.16663V22.6667ZM23.1666 18.6667H25.8333V24H23.1666V18.6667Z" fill="url(#paint0_linear_361_24316)"/>
<path d="M16.5 1.33334C9.87333 1.33334 4.5 6.70667 4.5 13.3333V22.6667C4.5 24.88 6.28667 26.6667 8.5 26.6667H12.5V16H7.16667V13.3333C7.16667 8.17334 11.34 4 16.5 4C21.66 4 25.8333 8.17334 25.8333 13.3333V16H20.5V26.6667H25.8333V28H16.5V30.6667H24.5C26.7133 30.6667 28.5 28.88 28.5 26.6667V13.3333C28.5 6.70667 23.1267 1.33334 16.5 1.33334ZM9.83333 18.6667V24H8.5C7.76667 24 7.16667 23.4 7.16667 22.6667V18.6667H9.83333ZM25.8333 24H23.1667V18.6667H25.8333V24Z" fill="url(#paint1_linear_361_24316)"/>
</g>
<defs>
<linearGradient id="paint0_linear_361_24316" x1="7.16663" y1="18.6667" x2="9.98424" y2="28.5283" gradientUnits="userSpaceOnUse">
<stop stop-color="#02C3BD"/>
<stop offset="1" stop-color="#4062BB"/>
</linearGradient>
<linearGradient id="paint1_linear_361_24316" x1="4.5" y1="1.33334" x2="33.2525" y2="24.8581" gradientUnits="userSpaceOnUse">
<stop stop-color="#02C3BD"/>
<stop offset="1" stop-color="#4062BB"/>
</linearGradient>
<clipPath id="clip0_361_24316">
<rect width="32" height="32" fill="white" transform="translate(0.5)"/>
</clipPath>
</defs>
</svg>
